<?xml version="1.0" encoding="UTF-8"?>
<!DOCTYPE svg PUBLIC "-//W3C//DTD SVG 1.1//EN" "http://www.w3.org/Graphics/SVG/1.1/DTD/svg11.dtd">
<svg version="1.1" xmlns="http://www.w3.org/2000/svg" xmlns:xlink="http://www.w3.org/1999/xlink" x="0" y="0" width="132" height="132" viewBox="0, 0, 132, 132">
  <g id="Layer_2" transform="translate(0, 0)">
    <path d="M7.044,53.107 C4.238,53.079 1.72,51.379 0.646,48.786 C-0.428,46.194 0.15,43.21 2.114,41.207 L41.524,1.747 C44.301,-0.632 48.441,-0.472 51.027,2.114 C53.613,4.699 53.772,8.839 51.394,11.617 L11.974,51.067 C10.668,52.376 8.894,53.111 7.044,53.107 z" fill="#FFFFFF"/>
    <path d="M7.044,92.527 C4.234,92.503 1.71,90.801 0.635,88.204 C-0.44,85.607 0.143,82.62 2.114,80.617 L41.524,41.207 C44.302,38.855 48.419,39.025 50.994,41.597 C53.569,44.17 53.743,48.286 51.394,51.067 L11.974,90.477 C10.666,91.784 8.894,92.521 7.044,92.527 z" fill="#FFFFFF"/>
    <path d="M7.044,131.937 C4.234,131.913 1.71,130.211 0.635,127.614 C-0.44,125.017 0.143,122.03 2.114,120.027 L120.344,1.747 C123.121,-0.632 127.261,-0.472 129.847,2.114 C132.433,4.699 132.592,8.839 130.214,11.617 L11.974,129.887 C10.672,131.203 8.896,131.941 7.044,131.937 z" fill="#FFFFFF"/>
    <path d="M85.864,92.527 C83.054,92.503 80.53,90.801 79.455,88.204 C78.38,85.607 78.963,82.62 80.934,80.617 L120.344,41.207 C123.122,38.855 127.239,39.025 129.814,41.597 C132.389,44.17 132.563,48.286 130.214,51.067 L90.804,90.477 C89.494,91.787 87.717,92.524 85.864,92.527 z" fill="#FFFFFF"/>
    <path d="M85.864,131.937 C83.054,131.913 80.53,130.211 79.455,127.614 C78.38,125.017 78.963,122.03 80.934,120.027 L120.344,80.617 C123.122,78.265 127.239,78.435 129.814,81.007 C132.389,83.58 132.563,87.696 130.214,90.477 L90.804,129.887 C89.498,131.203 87.719,131.942 85.864,131.937 z" fill="#FFFFFF"/>
  </g>
</svg>
